<svg xmlns="http://www.w3.org/2000/svg" viewBox="0 0 240 240" role="img" aria-label="Maskot Panduan Naik-Sadar"><defs><radialGradient id="h" cx="50%" cy="45%" r="65%"><stop offset="0" stop-color="#fff0a8"/><stop offset="1" stop-color="#fffaf0" stop-opacity="0"/></radialGradient><linearGradient id="g" x1="62" y1="34" x2="178" y2="190"><stop offset="0" stop-color="#f0c96b"/><stop offset=".55" stop-color="#fff0a8"/><stop offset="1" stop-color="#b66a34"/></linearGradient><filter id="s"><feDropShadow dx="0" dy="10" stdDeviation="8" flood-color="#24170f" flood-opacity=".16"/></filter></defs><circle cx="120" cy="120" r="104" fill="url(#h)"/><g filter="url(#s)"><path d="M120 34c31 29 48 62 44 95-5 36-24 60-44 60s-39-24-44-60c-4-33 13-66 44-95z" fill="url(#g)" stroke="#d9a441" stroke-width="3"/><path d="M72 181c28-8 67-8 96 0" fill="none" stroke="#55785b" stroke-width="10" stroke-linecap="round"/><path d="M82 169l30-23 19 16 27-32" fill="none" stroke="#6b9b93" stroke-width="9" stroke-linecap="round" stroke-linejoin="round"/><path d="M154 130l12-2-2 12" fill="none" stroke="#6b9b93" stroke-width="8" stroke-linecap="round" stroke-linejoin="round"/><path d="M101 111c7 6 13 6 20 0M119 111c7 6 13 6 20 0M110 136c7 7 14 7 21 0" fill="none" stroke="#6f3f21" stroke-width="5" stroke-linecap="round"/><ellipse cx="120" cy="207" rx="50" ry="9" fill="#24170f" opacity=".16"/></g></svg>