<svg xmlns="http://www.w3.org/2000/svg" viewBox="0 0 240 240" role="img" aria-label="Maskot Area Kerapian Naik-Sadar"><defs><radialGradient id="h" cx="50%" cy="45%" r="65%"><stop offset="0" stop-color="#fff0a8"/><stop offset="1" stop-color="#fffaf0" stop-opacity="0"/></radialGradient><linearGradient id="g" x1="62" y1="34" x2="178" y2="190"><stop offset="0" stop-color="#f0c96b"/><stop offset=".55" stop-color="#fff0a8"/><stop offset="1" stop-color="#b66a34"/></linearGradient><filter id="s"><feDropShadow dx="0" dy="10" stdDeviation="8" flood-color="#24170f" flood-opacity=".16"/></filter></defs><circle cx="120" cy="120" r="104" fill="url(#h)"/><g filter="url(#s)"><path d="M120 35c31 28 48 61 44 93-5 36-24 60-44 60s-39-24-44-60c-4-32 13-65 44-93z" fill="url(#g)" stroke="#d9a441" stroke-width="3"/><rect x="73" y="154" width="94" height="42" rx="12" fill="#fffaf0" stroke="#6f3f21" stroke-width="4"/><path d="M86 167h68M86 182h48" stroke="#6b9b93" stroke-width="5" stroke-linecap="round"/><path d="M156 113l26 74" stroke="#6f3f21" stroke-width="8" stroke-linecap="round"/><path d="M172 180c12 2 19 10 18 21-18 1-32-5-42-18 6-4 13-5 24-3z" fill="#55785b" stroke="#d9a441" stroke-width="3"/><path d="M101 111c7 6 13 6 20 0M119 111c7 6 13 6 20 0M110 136c7 7 14 7 21 0" fill="none" stroke="#6f3f21" stroke-width="5" stroke-linecap="round"/><ellipse cx="120" cy="207" rx="50" ry="9" fill="#24170f" opacity=".16"/></g></svg>