<svg xmlns="http://www.w3.org/2000/svg" viewBox="0 0 240 240" role="img" aria-label="Maskot Refleksi Naik-Sadar"><defs><radialGradient id="h" cx="50%" cy="45%" r="65%"><stop offset="0" stop-color="#fff0a8"/><stop offset="1" stop-color="#fffaf0" stop-opacity="0"/></radialGradient><linearGradient id="g" x1="60" y1="35" x2="180" y2="200"><stop offset="0" stop-color="#f0c96b"/><stop offset=".55" stop-color="#fff0a8"/><stop offset="1" stop-color="#b66a34"/></linearGradient><filter id="s"><feDropShadow dx="0" dy="10" stdDeviation="8" flood-color="#24170f" flood-opacity=".16"/></filter></defs><circle cx="120" cy="120" r="104" fill="url(#h)"/><g filter="url(#s)"><path d="M120 35c33 29 50 62 45 95-5 36-25 61-45 61s-40-25-45-61c-5-33 12-66 45-95z" fill="url(#g)" stroke="#d9a441" stroke-width="3"/><circle cx="120" cy="126" r="42" fill="none" stroke="#6b9b93" stroke-width="8" opacity=".88"/><path d="M150 157l28 28" stroke="#55785b" stroke-width="10" stroke-linecap="round"/><path d="M101 112c7 6 13 6 20 0M119 112c7 6 13 6 20 0M110 139c7 7 14 7 21 0" fill="none" stroke="#6f3f21" stroke-width="5" stroke-linecap="round"/><ellipse cx="120" cy="207" rx="48" ry="9" fill="#24170f" opacity=".16"/></g></svg>