<svg xmlns="http://www.w3.org/2000/svg" viewBox="0 0 240 240" role="img" aria-label="Maskot Sholat Sadar"><defs><radialGradient id="h" cx="50%" cy="45%" r="65%"><stop offset="0" stop-color="#fff0a8"/><stop offset="1" stop-color="#fffaf0" stop-opacity="0"/></radialGradient><linearGradient id="g" x1="60" y1="35" x2="180" y2="200"><stop offset="0" stop-color="#fff0a8"/><stop offset=".55" stop-color="#f0c96b"/><stop offset="1" stop-color="#b66a34"/></linearGradient><filter id="s"><feDropShadow dx="0" dy="10" stdDeviation="8" flood-color="#24170f" flood-opacity=".16"/></filter></defs><circle cx="120" cy="120" r="104" fill="url(#h)"/><g filter="url(#s)"><path d="M120 33c31 29 47 63 43 96-5 36-24 61-43 61s-38-25-43-61c-4-33 12-67 43-96z" fill="url(#g)" stroke="#d9a441" stroke-width="3"/><path d="M70 179c28-18 72-18 100 0 10 7 7 20-6 20H76c-13 0-16-13-6-20z" fill="#55785b" stroke="#d9a441" stroke-width="3"/><path d="M82 171c22-12 54-12 76 0" fill="none" stroke="#6b9b93" stroke-width="8" stroke-linecap="round"/><path d="M101 111c7 6 13 6 20 0M119 111c7 6 13 6 20 0M110 136c7 7 14 7 21 0" fill="none" stroke="#6f3f21" stroke-width="5" stroke-linecap="round"/><circle cx="120" cy="88" r="8" fill="#b66a34" opacity=".7"/><ellipse cx="120" cy="207" rx="50" ry="9" fill="#24170f" opacity=".16"/></g></svg>