<svg xmlns="http://www.w3.org/2000/svg" viewBox="0 0 240 240" role="img" aria-label="Maskot Materi Naik-Sadar"><defs><radialGradient id="h" cx="50%" cy="45%" r="65%"><stop offset="0" stop-color="#fff0a8"/><stop offset="1" stop-color="#fffaf0" stop-opacity="0"/></radialGradient><linearGradient id="g" x1="62" y1="34" x2="178" y2="190"><stop offset="0" stop-color="#f0c96b"/><stop offset=".55" stop-color="#fff0a8"/><stop offset="1" stop-color="#b66a34"/></linearGradient><filter id="s"><feDropShadow dx="0" dy="10" stdDeviation="8" flood-color="#24170f" flood-opacity=".16"/></filter></defs><circle cx="120" cy="120" r="104" fill="url(#h)"/><g filter="url(#s)"><path d="M120 35c31 28 48 61 44 93-5 36-24 60-44 60s-39-24-44-60c-4-32 13-65 44-93z" fill="url(#g)" stroke="#d9a441" stroke-width="3"/><path d="M62 153c27-17 48-14 58 5 10-19 31-22 58-5v42c-28-14-48-12-58 5-10-17-30-19-58-5z" fill="#fffaf0" stroke="#6f3f21" stroke-width="4"/><path d="M120 158v42" stroke="#d9a441" stroke-width="4"/><path d="M84 169h25M131 169h25M84 184h22M134 184h20" stroke="#6b9b93" stroke-width="4" stroke-linecap="round"/><path d="M101 110c7 6 13 6 20 0M119 110c7 6 13 6 20 0M110 135c7 7 14 7 21 0" fill="none" stroke="#6f3f21" stroke-width="5" stroke-linecap="round"/><ellipse cx="120" cy="207" rx="50" ry="9" fill="#24170f" opacity=".16"/></g></svg>